ffprobe version n2.6.1 Copyright (c) 2007-2015 the FFmpeg developers
  built with gcc 4.8 (Ubuntu 4.8.2-19ubuntu1)
  configuration: --prefix=/opt/ffmpeg --extra-cflags=-I/opt/ffmpeg/include --extra-ldflags=-L/opt/ffmpeg/lib --extra-libs=-ldl --enable-gpl --enable-libass --enable-libfdk-aac --enable-libfreetype --enable-libmp3lame --enable-libtheora --enable-libvorbis --enable-libvpx --enable-libx264 --enable-libx265 --enable-nonfree
  libavutil      54. 20.100 / 54. 20.100
  libavcodec     56. 26.100 / 56. 26.100
  libavformat    56. 25.101 / 56. 25.101
  libavdevice    56.  4.100 / 56.  4.100
  libavfilter     5. 11.102 /  5. 11.102
  libswscale      3.  1.101 /  3.  1.101
  libswresample   1.  1.100 /  1.  1.100
  libpostproc    53.  3.100 / 53.  3.100
Input #0, mpeg, from 'Teste 8-3-12.mpg':
  Duration: 00:01:49.04, start: 0.066733, bitrate: 93998 kb/s
    Stream #0:0[0x1e0]: Video: mpeg2video (Main), yuv420p(tv), 1920x1080 [SAR 1:1 DAR 16:9], max. 100000 kb/s, 29.97 fps, 29.97 tbr, 90k tbn, 59.94 tbc
    Stream #0:1[0x1c0]: Audio: mp2, 48000 Hz, stereo, s16p, 384 kb/s
    Stream #0:2[0x1c1]: Audio: mp2, 48000 Hz, stereo, s16p, 384 kb/s
